<svg id="Layer_1" enable-background="new 0 0 512 512" height="512" viewBox="0 0 512 512" width="512" xmlns="http://www.w3.org/2000/svg"><g><path d="m512 63.2c0-34.848-28.352-63.2-63.2-63.2-15.115 0-29.32 5.369-40.059 15.127-12.149 9.819-28.381 13.287-43.504 9.273-.011-.003-.022-.006-.034-.009-89.766-23.603-189.224 17.757-256.135 84.667-67.505 67.499-108.028 166.859-85.317 256.188.013.051.027.103.041.155 3.997 15.048.488 31.213-9.368 43.218-9.301 11.282-14.424 25.552-14.424 40.181 0 34.848 28.352 63.2 63.2 63.2 15.125 0 29.331-5.369 40.062-15.129 12.15-9.82 28.386-13.285 43.542-9.263 89.68 23.583 189.15-17.681 256.136-84.667 67.502-67.502 108.018-166.865 85.309-256.187-.013-.051-.027-.103-.041-.155-3.997-15.048-.488-31.213 9.368-43.218 9.302-11.282 14.424-25.552 14.424-40.181zm-37.59 21.121c-15.964 19.444-21.65 45.563-15.219 69.889 18.452 72.703-11.948 162.002-77.463 227.517-65.72 65.72-154.938 95.892-227.261 76.875-24.55-6.516-50.92-.787-70.541 15.325-.23.189-.455.385-.673.587-5.211 4.828-12.333 7.486-20.053 7.486-18.306 0-33.2-14.894-33.2-33.2 0-7.794 2.618-15.089 7.591-21.121 15.964-19.444 21.65-45.563 15.219-69.889-18.453-72.705 11.951-162.003 77.471-227.517 65.71-65.71 154.918-95.881 227.271-76.873 24.542 6.509 50.905.781 70.521-15.328.229-.188.451-.381.668-.582 5.22-4.83 12.344-7.49 20.058-7.49 18.307 0 33.2 14.894 33.2 33.2.001 7.794-2.617 15.09-7.589 21.121z"/><circle cx="207.792" cy="143.533" r="15"/><circle cx="223.859" cy="223.85" r="15"/><circle cx="159.6" cy="288.109" r="15"/><circle cx="288.109" cy="159.6" r="15"/><circle cx="143.533" cy="207.784" r="15"/></g></svg>