<?xml version="1.0" encoding="UTF-8" standalone="no"?><!DOCTYPE svg PUBLIC "-//W3C//DTD SVG 1.1//EN" "http://www.w3.org/Graphics/SVG/1.1/DTD/svg11.dtd"><svg width="100%" height="100%" viewBox="0 0 3274 985" version="1.1" xmlns="http://www.w3.org/2000/svg" xmlns:xlink="http://www.w3.org/1999/xlink" xml:space="preserve" xmlns:serif="http://www.serif.com/" style="fill-rule:evenodd;clip-rule:evenodd;stroke-linejoin:round;stroke-miterlimit:2;"><text x="984.491px" y="703.777px" style="font-family:'Shrikhand-Regular', 'Shrikhand';font-style:italic;font-size:638.021px;">lemon</text><text x="3058.94px" y="378.534px" style="font-family:'Helvetica';font-size:156.25px;">TM</text><path id="XMLID_1296_" d="M816.283,20.456l-20.458,-20.456l-795.825,795.825l20.458,20.456c107.512,107.512 249.962,167.247 401.108,168.196c1.226,0.008 2.432,0.012 3.656,0.012c149.9,0 290.363,-57.961 395.835,-163.432c106.335,-106.336 164.373,-248.21 163.42,-399.493c-0.947,-151.144 -60.68,-293.592 -168.194,-401.108Zm-441.918,789.046c-77.848,-6.383 -154.598,-35.034 -220.027,-86.183l232.283,-232.284l-12.256,318.467Zm70.369,-323.854l227.152,227.152c-68.824,59.66 -153.345,92.188 -239.641,97.342l12.489,-324.494Zm268.07,186.243l-227.156,-227.157l324.502,-12.489c-5.158,86.294 -37.688,170.823 -97.346,239.646Zm-221.769,-285.27l232.288,-232.291c51.153,65.431 79.798,142.182 86.179,220.033l-318.467,12.258Zm289.107,393.521c-190.072,190.07 -497.245,194.612 -697.748,15.12l30.779,-30.779c83.713,67.44 187.092,104.096 294.722,104.094c2.742,0 5.502,-0.025 8.249,-0.071c120.325,-2.091 233.208,-49.862 317.853,-134.507c84.645,-84.645 132.416,-197.529 134.507,-317.853c1.921,-110.583 -34.864,-217.123 -104.025,-302.973l30.779,-30.779c179.498,200.505 174.956,507.678 -15.116,697.748Z" style="fill-rule:nonzero;"/></svg>