<?xml version="1.0" encoding="UTF-8" standalone="no"?><!DOCTYPE svg PUBLIC "-//W3C//DTD SVG 1.1//EN" "http://www.w3.org/Graphics/SVG/1.1/DTD/svg11.dtd"><svg width="100%" height="100%" viewBox="0 0 3466 1112" version="1.1" xmlns="http://www.w3.org/2000/svg" xmlns:xlink="http://www.w3.org/1999/xlink" xml:space="preserve" xmlns:serif="http://www.serif.com/" style="fill-rule:evenodd;clip-rule:evenodd;stroke-linejoin:round;stroke-miterlimit:2;"><text x="1111.98px" y="846.204px" style="font-family:'Shrikhand-Regular', 'Shrikhand';font-style:italic;font-size:638.021px;fill:#fefffe;">lemon</text><text x="3251px" y="558.657px" style="font-family:'Helvetica';font-size:156.25px;fill:#fefffe;">TM</text><g><path id="XMLID_1296_" d="M921.993,23.105l-23.108,-23.105l-898.885,898.885l23.108,23.105c121.435,121.435 282.331,188.906 453.051,189.978c1.385,0.009 2.747,0.013 4.13,0.013c169.312,0 327.965,-65.467 447.095,-184.597c120.106,-120.106 185.66,-280.353 184.584,-451.227c-1.07,-170.718 -68.538,-331.612 -189.975,-453.052Zm-499.147,891.228c-87.929,-7.209 -174.619,-39.571 -248.521,-97.343l262.363,-262.365l-13.842,359.708Zm79.481,-365.793l256.569,256.568c-77.736,67.386 -173.204,104.127 -270.675,109.948l14.106,-366.516Zm302.786,210.362l-256.573,-256.575l366.525,-14.106c-5.826,97.469 -42.568,192.945 -109.952,270.681Zm-250.488,-322.214l262.369,-262.372c57.777,73.904 90.132,160.594 97.339,248.528l-359.708,13.844Zm326.546,444.483c-214.686,214.685 -561.639,219.815 -788.107,17.078l34.765,-34.765c94.554,76.174 211.321,117.577 332.888,117.575c3.098,0 6.216,-0.029 9.318,-0.081c135.907,-2.361 263.409,-56.319 359.015,-151.925c95.607,-95.607 149.564,-223.109 151.926,-359.016c2.17,-124.903 -39.379,-245.24 -117.496,-342.208l34.764,-34.765c202.744,226.47 197.614,573.423 -17.073,788.107Z" style="fill:#fff;fill-rule:nonzero;"/></g></svg>