<svg id="Capa_1" class="black" enable-background="new 0 0 512 512" height="512" viewBox="0 0 512 512" width="512" xmlns="http://www.w3.org/2000/svg"><g><path d="m512 221.688v-83.197h-83.196c-.588 0-1.172.017-1.758.022-.22-.547-.438-1.1-.662-1.639l-31.838-76.864-76.862 31.838c-.541.224-1.088.462-1.632.694-.41-.418-.808-.847-1.222-1.261l-58.83-58.829-58.829 58.83c-.414.414-.812.843-1.222 1.261-.544-.232-1.091-.469-1.631-.693l-76.863-31.839-31.839 76.864c-.223.539-.441 1.092-.661 1.639-.586-.005-1.17-.022-1.758-.022h-83.197v83.197c0 66.098 34.328 124.325 86.088 157.803h-86.088v15c0 46.9 38.156 85.056 85.056 85.056h341.889c46.899 0 85.056-38.156 85.056-85.056v-15h-86.088c51.759-33.479 86.087-91.706 86.087-157.804zm-133.69-122.48 17.477 42.191c-13.851 2.467-27.18 6.457-39.81 11.79-5.244-12.842-11.937-25.09-19.889-36.492zm-122.31-24.329 37.616 37.616c15.558 15.558 27.716 34.277 35.607 54.643-32.337 20.305-58.082 50.178-73.223 85.627-15.141-35.449-40.886-65.322-73.223-85.627 7.89-20.366 20.049-39.085 35.607-54.643zm-122.31 24.329 42.222 17.49c-7.952 11.401-14.645 23.65-19.889 36.491-12.63-5.333-25.959-9.324-39.81-11.79zm-103.69 122.48v-53.197h53.196c87.014 0 157.804 70.79 157.804 157.803v53.197h-53.196c-87.014 0-157.804-70.79-157.804-157.803zm449.924 187.803c-6.547 23.092-27.819 40.056-52.979 40.056h-341.889c-25.16 0-46.433-16.964-52.979-40.056zm-155.728-30h-53.196v-53.197c0-87.013 70.79-157.803 157.804-157.803h53.196v53.197c0 87.013-70.79 157.803-157.804 157.803z"/></g></svg>