<svg height="512pt" viewBox="-49 0 512 512.00015" width="512pt" xmlns="http://www.w3.org/2000/svg"><path d="m315.078125 361.488281h-48.445313l-6.476562-17.601562c34.160156-18.757813 57.90625-54.535157 59.964844-95.910157l20.4375-28.597656c14.285156-19.992187 21.839844-43.542968 21.839844-68.113281 0-30.535156-20.203126-56.4375-47.945313-65.046875-6.589844-23.335938-20.308594-44.273438-39.3125-59.722656-21.847656-17.757813-49.386719-27.15625-77.582031-26.4609378-41.71875 1.0312498-79.574219 23.8515628-100.074219 59.9257818-28.847656 13.503906-48.886719 42.796874-48.886719 76.695312v14.449219c0 24.675781 7.582032 48.328125 21.929688 68.402343l20.484375 28.660157c1.21875 28.839843 13.042969 55.761719 33.617187 76.265625 8.765625 8.734375 18.6875 15.875 29.421875 21.285156l-5.804687 15.769531h-48.445313c-55.03125 0-99.800781 44.773438-99.800781 99.804688v50.707031h414.878906v-50.707031c0-55.03125-44.769531-99.804688-99.800781-99.804688zm17.304687-210.222656c0 18.273437-5.617187 35.792969-16.242187 50.660156l-4.828125 6.753907c-12.273438-22.511719-36.160156-37.820313-63.558594-37.820313-6.699218 0-13.253906-1.460937-19.242187-4.207031 6.898437-11.078125 10.894531-24.136719 10.894531-38.117188 0-5.253906-.53125-10.386718-1.546875-15.347656h56.449219c20.996094 0 38.074218 17.082031 38.074218 38.078125zm-134.085937-121.222656c21.050781-.519531 41.609375 6.492187 57.914063 19.746093 11.078124 9.003907 19.753906 20.5 25.367187 33.386719h-57.109375c-13.949219-18.886719-36.355469-31.160156-61.582031-31.160156h-20.777344c15.324219-13.46875 35.09375-21.453125 56.1875-21.972656zm-119.6875 106.613281c0-30.121094 24.507813-54.628906 54.632813-54.628906h29.644531c25.644531 0 46.507812 20.863281 46.507812 46.507812 0 23.339844-18.988281 42.328125-42.324219 42.328125h-3.832031c-27.394531 0-51.28125 15.304688-63.554687 37.816407l-4.738282-6.625c-10.683593-14.953126-16.332031-32.570313-16.332031-50.949219v-14.449219zm42.304687 106.542969c0-23.335938 18.984376-42.324219 42.324219-42.324219h3.828125c14.679688 0 28.339844-4.40625 39.757813-11.949219 12.160156 7.753907 26.335937 11.949219 40.929687 11.949219 23.339844 0 42.324219 18.988281 42.324219 42.324219v4.125c-2.667969 44.714843-39.402344 80.390625-84.195313 80.546875-.101562 0-.199218 0-.300781 0-22.5625 0-43.777343-8.765625-59.765625-24.695313-16.058594-16.003906-24.902344-37.304687-24.902344-59.976562zm-21.992187 238.785156 3.601563-20.902344h209.601562l3.367188 20.902344zm285.945313 0h-38.972657l-8.203125-50.917969h-260.449218l-8.777344 50.917969h-38.449219v-20.695313c0-38.480468 31.304687-69.785156 69.785156-69.785156h69.382813l13.230468-35.953125c7.542969 1.539063 15.292969 2.332031 23.164063 2.332031h.410156c9.003907-.03125 17.765625-1.121093 26.175781-3.148437l13.535157 36.769531h69.378906c38.480469 0 69.789063 31.304688 69.789063 69.785156zm0 0"/></svg>