<?xml version="1.0" encoding="UTF-8" standalone="no"?><!DOCTYPE svg PUBLIC "-//W3C//DTD SVG 1.1//EN" "http://www.w3.org/Graphics/SVG/1.1/DTD/svg11.dtd"><svg width="100%" height="100%" viewBox="0 0 3414 985" version="1.1" xmlns="http://www.w3.org/2000/svg" xmlns:xlink="http://www.w3.org/1999/xlink" xml:space="preserve" xmlns:serif="http://www.serif.com/" style="fill-rule:evenodd;clip-rule:evenodd;stroke-linejoin:round;stroke-miterlimit:2;"><g><g><text x="984.491px" y="771.658px" style="font-family:'Shrikhand-Regular', 'Shrikhand';font-style:italic;font-size:963.542px;fill:#2b4f2e;">zest</text><text x="3199.03px" y="347.284px" style="font-family:'Helvetica';font-size:156.25px;fill:#2b4f2e;">TM</text><clipPath id="_clip1"><rect id="sweet--4-" serif:id="sweet (4)" x="0" y="0" width="984.491" height="984.491"/></clipPath><g clip-path="url(#_clip1)"><g><g id="XMLID_968_"><path id="XMLID_972_" d="M715.432,674.653c73.681,-84.722 106.975,-192.886 99.404,-299.391l-384.017,14.778l284.613,284.613Z" style="fill:#2b4f2e;fill-rule:nonzero;"/><path id="XMLID_974_" d="M105.065,690.699l17.552,15.892c57.083,51.681 124.431,84.961 194.567,99.998l13.129,-341.14l-225.248,225.25Z" style="fill:#2b4f2e;fill-rule:nonzero;"/><path id="XMLID_976_" d="M374.987,814.819c106.466,7.639 214.612,-25.561 299.362,-99.118l-284.596,-284.594l-14.766,383.712Z" style="fill:#2b4f2e;fill-rule:nonzero;"/><path id="XMLID_977_" d="M706.589,122.617l-15.891,-17.552l-225.535,225.535l341.483,-13.141c-15.009,-70.235 -48.308,-137.684 -100.057,-194.842Z" style="fill:#2b4f2e;fill-rule:nonzero;"/><path id="XMLID_978_" d="M816.296,20.534l-20.534,-20.534l-63.949,63.949l17.827,19.692c82.131,90.714 126.195,207.806 124.077,329.707c-2.127,122.456 -50.742,237.339 -136.888,323.483c-86.146,86.145 -201.027,134.761 -323.483,136.888c-2.798,0.048 -5.605,0.074 -8.396,0.074c-118.877,0 -232.678,-43.904 -321.311,-124.149l-19.692,-17.827l-63.947,63.945l20.534,20.532c107.503,107.506 249.942,167.235 401.074,168.183c1.227,0.008 2.433,0.012 3.661,0.012c149.889,0 290.337,-57.956 395.803,-163.421c106.326,-106.327 164.359,-248.192 163.409,-399.462c-0.951,-151.13 -60.679,-293.569 -168.185,-401.072Z" style="fill:#2b4f2e;fill-rule:nonzero;"/></g></g></g></g></g></svg>